<?xml version="1.0" standalone="no"?>
<!DOCTYPE svg PUBLIC "-//W3C//DTD SVG 20010904//EN"
 "http://www.w3.org/TR/2001/REC-SVG-20010904/DTD/svg10.dtd">
<svg version="1.0" xmlns="http://www.w3.org/2000/svg"
 width="512.000000pt" height="512.000000pt" viewBox="0 0 512.000000 512.000000"
 preserveAspectRatio="xMidYMid meet">
<metadata>
Created by potrace 1.11, written by Peter Selinger 2001-2013
</metadata>
<g transform="translate(0.000000,512.000000) scale(0.100000,-0.100000)"
fill="#000000" stroke="none">
<path d="M2286 5085 c-49 -8 -99 -18 -110 -24 -12 -5 -46 -16 -76 -24 -96 -25
-140 -43 -290 -117 -72 -36 -116 -63 -238 -145 -9 -5 -23 -17 -32 -25 -9 -8
-37 -31 -61 -50 -80 -62 -274 -263 -334 -345 -68 -92 -165 -234 -165 -242 0
-3 -9 -17 -20 -33 -16 -23 -132 -245 -135 -260 -1 -3 -9 -23 -19 -45 -18 -42
-60 -146 -61 -155 -1 -6 -30 -99 -51 -162 -33 -98 -77 -322 -101 -503 -23
-181 -23 -611 0 -790 24 -180 68 -404 101 -503 49 -150 92 -273 110 -312 11
-25 21 -47 21 -50 3 -14 118 -237 135 -260 11 -16 20 -30 20 -33 0 -9 104
-159 177 -257 70 -93 219 -246 317 -325 27 -22 56 -47 66 -55 9 -8 23 -19 32
-25 122 -82 166 -109 238 -145 153 -75 189 -90 305 -122 81 -22 85 -23 105
-31 40 -14 201 -27 345 -27 148 1 339 19 366 35 6 4 41 15 78 25 108 29 148
44 301 120 72 36 116 63 238 145 9 6 23 17 32 25 9 8 37 31 61 50 80 62 274
263 334 345 68 92 165 234 165 242 0 3 9 17 20 33 16 23 132 245 135 260 1 3
9 23 19 45 18 40 59 146 61 155 2 12 39 129 55 175 10 28 21 73 25 100 4 28
10 55 13 60 10 15 39 182 59 330 23 179 23 609 0 790 -19 147 -49 315 -59 330
-3 6 -9 33 -13 60 -4 28 -15 73 -25 100 -16 46 -53 163 -55 175 -3 17 -48 128
-67 163 -11 23 -20 43 -19 45 3 4 -109 224 -129 252 -11 16 -20 30 -20 33 0 9
-104 159 -177 257 -70 93 -219 246 -317 325 -27 22 -56 47 -66 55 -9 8 -23 20
-32 25 -122 82 -166 109 -238 145 -151 74 -195 92 -290 116 -30 8 -63 19 -72
24 -65 36 -477 51 -662 25z m152 -267 c5 -11 32 -10 32 2 0 6 25 10 55 10 30
0 55 -4 55 -10 0 -5 14 -10 32 -10 57 0 159 -22 165 -35 2 -8 23 -17 44 -20
22 -4 43 -13 45 -20 3 -7 18 -15 34 -18 16 -4 43 -19 62 -35 18 -16 47 -34 64
-39 17 -6 52 -27 78 -47 26 -20 51 -36 56 -36 4 0 6 -10 3 -21 -5 -16 -2 -20
8 -17 8 3 13 11 11 18 -1 6 3 10 10 7 7 -2 12 -11 10 -21 -2 -9 4 -16 12 -16
11 0 14 -9 12 -35 -1 -19 1 -35 6 -35 4 0 8 -9 8 -20 0 -11 -5 -20 -11 -20 -6
0 -9 -6 -6 -12 2 -7 13 -12 25 -10 28 4 40 -18 13 -25 -12 -3 -21 -10 -21 -15
0 -6 -5 -6 -14 1 -7 6 -20 9 -27 6 -8 -3 -21 -1 -29 5 -12 8 -11 13 8 39 25
35 29 61 7 61 -8 0 -15 -8 -15 -17 0 -15 -2 -16 -9 -3 -6 8 -7 18 -4 23 3 4
-3 15 -13 22 -11 9 -14 14 -6 15 17 0 15 30 -3 30 -8 0 -15 5 -15 11 0 6 -7 8
-16 5 -9 -4 -13 -2 -8 5 4 7 1 10 -7 7 -9 -3 -13 -18 -12 -42 1 -20 -2 -36 -7
-36 -13 0 -13 -27 1 -35 6 -4 16 1 24 11 11 15 16 17 26 7 11 -11 10 -13 -3
-13 -16 0 -48 -35 -48 -52 0 -5 7 -8 15 -8 8 0 15 -4 15 -10 0 -5 -6 -9 -12
-7 -7 1 -13 -5 -13 -13 0 -8 7 -15 15 -14 9 1 21 -5 29 -13 10 -12 8 -13 -16
-7 -15 4 -33 14 -39 22 -12 17 -34 8 -34 -14 0 -8 -4 -14 -10 -14 -14 0 -12
11 5 34 16 21 20 46 7 46 -4 0 -15 -12 -24 -27 l-17 -28 -1 48 c0 35 -4 47
-15 47 -8 0 -15 -6 -15 -14 0 -7 -9 -16 -20 -19 -24 -6 -37 8 -15 17 26 10 16
26 -16 26 -18 0 -28 4 -24 10 14 23 -27 21 -49 -3 -17 -18 -27 -22 -39 -15
-10 5 -17 16 -17 23 0 8 -7 15 -15 15 -8 0 -15 -9 -15 -20 0 -14 -7 -20 -21
-20 -16 0 -19 -4 -14 -20 13 -42 -21 -19 -43 29 -23 51 -27 72 -14 70 19 -3
23 2 12 16 -10 12 -10 18 0 29 10 13 16 12 46 -4 19 -11 36 -20 39 -20 15 -1
41 -16 57 -32 22 -22 68 -24 68 -4 0 8 -6 17 -12 19 -7 3 -1 6 15 6 17 1 27 6
27 16 0 23 -31 31 -45 12 -11 -15 -14 -14 -35 8 -13 14 -30 25 -38 25 -8 0
-27 11 -42 24 -51 43 -152 44 -109 1 16 -16 14 -89 -2 -79 -5 3 -7 9 -4 14 9
15 -14 50 -31 50 -12 0 -15 -6 -10 -24 5 -20 3 -23 -14 -19 -13 3 -20 0 -20
-8 0 -8 -8 -4 -19 10 -12 16 -20 20 -25 12 -4 -7 -2 -18 4 -26 10 -12 9 -16
-4 -21 -18 -7 -22 -34 -5 -34 5 0 8 -4 4 -9 -3 -6 1 -13 9 -18 12 -7 12 -11 1
-27 -12 -15 -17 -17 -29 -7 -23 19 -38 4 -24 -22 10 -20 10 -21 -5 -8 -10 7
-17 20 -17 27 0 8 -6 14 -12 14 -7 0 -24 3 -37 7 -18 4 -22 3 -19 -8 3 -8 11
-13 17 -11 6 1 11 -5 11 -13 0 -8 -5 -15 -11 -15 -6 0 -9 -9 -6 -20 3 -11 2
-20 -3 -20 -10 0 -20 36 -20 73 0 17 -5 27 -15 27 -8 0 -15 -7 -15 -15 0 -8
-5 -15 -10 -15 -6 0 -8 10 -4 24 5 20 2 24 -20 24 -23 0 -26 -5 -26 -34 0 -19
-5 -34 -11 -34 -6 0 -8 8 -5 18 3 9 -1 26 -9 36 -23 31 -45 4 -45 -55 0 -34
-4 -47 -12 -45 -7 1 -10 1 -5 -1 11 -7 9 -33 -3 -33 -5 0 -11 -10 -11 -22 -1
-17 -2 -19 -6 -5 -8 29 -40 21 -41 -10 -1 -16 -6 -41 -11 -58 -9 -29 -9 -29
-11 -5 -1 14 -2 29 -1 34 4 17 -22 56 -35 56 -16 0 -25 -15 -34 -54 -4 -22
-11 -30 -23 -28 -13 2 -17 -5 -17 -35 -1 -31 -3 -35 -11 -20 -12 21 -39 23
-39 2 0 -8 -7 -15 -16 -15 -9 0 -14 -7 -12 -17 3 -15 14 -18 72 -15 38 1 75 7
83 13 10 9 13 7 13 -11 0 -15 5 -20 14 -17 8 3 20 -1 26 -9 8 -8 30 -14 56
-14 45 0 64 -14 45 -33 -17 -17 -13 -27 9 -27 11 0 20 5 20 10 0 6 5 10 11 10
6 0 -2 -15 -18 -34 -19 -24 -34 -33 -47 -29 -17 5 -35 -11 -36 -30 0 -4 14
-14 32 -21 l31 -14 -31 -7 c-18 -3 -32 -10 -32 -15 0 -4 -8 -7 -17 -6 -11 0
-17 -5 -15 -15 2 -13 -4 -15 -24 -11 -20 4 -25 1 -22 -9 3 -8 13 -13 22 -13 9
1 16 -2 16 -7 0 -5 -11 -9 -25 -9 -14 0 -25 -6 -25 -14 0 -9 -8 -12 -24 -9
-13 3 -27 0 -30 -6 -4 -6 -25 -11 -47 -11 -49 0 -104 -27 -146 -73 -26 -28
-33 -44 -33 -76 0 -22 3 -42 8 -44 10 -7 5 -237 -7 -322 -10 -71 -5 -151 10
-161 4 -2 6 -11 2 -19 -3 -9 -1 -21 4 -28 5 -6 15 -38 22 -69 7 -32 16 -60 20
-63 5 -2 14 -33 21 -67 7 -35 21 -72 31 -84 11 -11 19 -25 19 -31 0 -6 7 -17
16 -24 26 -22 34 -53 15 -62 -11 -5 -10 -6 6 -3 14 2 32 -5 48 -20 14 -13 33
-24 42 -24 12 0 13 -3 3 -15 -6 -8 -9 -19 -5 -25 4 -6 -3 -9 -16 -7 -12 1 -24
-4 -26 -10 -3 -7 2 -13 11 -13 9 0 16 -4 16 -10 0 -21 -30 -9 -36 14 -7 28
-57 36 -52 7 2 -9 12 -15 21 -15 14 2 15 -1 6 -12 -6 -8 -9 -14 -5 -14 3 0 8
0 11 0 11 1 33 -25 28 -32 -2 -5 1 -8 7 -8 6 0 15 -11 20 -25 5 -14 16 -25 24
-25 9 0 16 -16 20 -45 4 -25 12 -45 17 -45 6 0 9 -6 6 -12 -2 -7 -15 -12 -28
-11 -14 2 -18 0 -9 -4 23 -9 29 -24 23 -56 -3 -16 -2 -32 3 -36 21 -14 30 -56
23 -97 -5 -24 -4 -57 1 -76 6 -18 10 -45 10 -59 0 -15 7 -30 16 -33 12 -5 14
-13 10 -32 -5 -17 -2 -32 8 -43 13 -15 22 -41 25 -74 1 -4 14 -13 30 -18 22
-8 28 -15 24 -30 -4 -13 0 -19 11 -19 15 0 14 -3 -3 -21 -11 -12 -17 -27 -14
-35 6 -17 23 -18 23 -1 1 16 33 -43 37 -68 4 -26 10 -59 12 -64 0 -2 8 2 16 9
16 13 19 8 15 -24 -1 -11 3 -16 10 -11 6 4 17 -1 25 -11 11 -15 15 -16 29 -5
13 11 17 9 28 -13 7 -17 17 -25 26 -21 8 3 20 1 26 -3 36 -29 95 -15 117 26 9
15 16 19 23 12 7 -7 19 0 38 22 15 18 28 27 28 21 0 -7 5 -13 10 -13 6 0 10 8
10 18 0 13 5 11 23 -10 17 -20 32 -27 53 -25 16 1 31 5 34 8 3 3 19 9 35 13
24 5 26 4 12 -4 -19 -12 -14 -30 9 -30 8 0 13 4 10 9 -4 5 7 12 23 16 16 3 35
13 41 20 7 8 28 17 49 20 20 3 43 10 52 15 18 9 34 1 34 -17 0 -23 18 -19 20
4 2 32 13 39 28 21 17 -22 68 -32 78 -16 7 10 9 10 9 1 0 -7 11 -13 25 -13 14
0 24 -5 22 -11 -1 -6 4 -14 12 -17 10 -3 13 1 8 17 -5 22 16 31 28 11 3 -5 15
-10 26 -10 10 0 19 -7 19 -15 0 -9 -9 -15 -25 -15 -14 0 -25 -4 -25 -9 0 -13
28 -22 35 -11 4 6 13 10 22 10 9 0 21 8 28 17 11 14 15 15 28 4 13 -10 14 -16
4 -32 -6 -10 -17 -19 -23 -19 -10 0 -23 -10 -71 -50 -8 -6 -14 -6 -18 0 -3 6
-20 10 -36 10 -24 0 -30 -4 -27 -17 3 -12 12 -17 28 -15 19 1 22 0 10 -8 -8
-5 -25 -7 -37 -3 -14 3 -23 1 -23 -6 0 -6 5 -11 10 -11 6 0 10 -4 10 -10 0 -5
-6 -10 -14 -10 -18 0 -27 -26 -20 -56 4 -15 13 -24 26 -24 10 0 16 4 13 10 -3
6 1 7 9 4 22 -8 20 -21 -3 -27 -10 -2 -27 -17 -37 -32 -17 -26 -17 -28 0 -37
14 -8 15 -12 6 -18 -7 -4 -10 -12 -6 -18 9 -15 83 -52 90 -45 3 3 12 -9 20
-28 8 -19 18 -37 22 -41 11 -11 13 -67 2 -74 -5 -3 -4 -12 3 -20 7 -9 8 -14 1
-14 -6 0 -14 5 -17 10 -3 6 -15 10 -26 10 -10 0 -19 5 -19 11 0 6 -6 9 -12 6
-7 -2 -12 -13 -10 -24 2 -11 -4 -23 -13 -26 -8 -4 -15 -13 -15 -22 0 -8 -4
-15 -8 -15 -14 0 -32 23 -32 42 0 10 -5 18 -10 18 -16 0 -26 -33 -12 -38 7 -2
12 -9 12 -15 0 -6 12 -23 26 -38 l27 -28 -27 -7 c-14 -3 -31 -14 -37 -23 -8
-13 -9 -11 -3 8 5 21 3 23 -19 19 -14 -3 -24 0 -23 6 0 6 -3 11 -9 11 -5 0
-10 -17 -9 -37 1 -41 -13 -52 -18 -16 -2 14 -11 24 -23 26 -11 2 -30 8 -42 14
-28 14 -31 11 -35 -27 -2 -18 -17 -44 -39 -65 -20 -19 -34 -41 -32 -47 3 -8
-5 -13 -22 -13 -21 0 -26 -4 -21 -16 5 -13 1 -15 -19 -12 -31 6 -44 -11 -21
-27 9 -7 14 -19 10 -29 -7 -18 -29 -21 -39 -6 -3 5 -12 10 -18 10 -9 0 -9 -2
1 -8 18 -12 -29 -55 -51 -46 -12 4 -17 1 -17 -10 0 -9 -7 -16 -15 -16 -8 0
-15 -7 -15 -15 0 -8 4 -15 9 -15 5 0 12 -7 15 -16 5 -14 4 -15 -9 -4 -18 15
-47 6 -39 -13 3 -9 -3 -16 -15 -20 -14 -3 -19 -10 -15 -20 4 -11 -2 -16 -23
-19 -24 -3 -26 -5 -13 -17 14 -12 12 -17 -13 -42 -27 -28 -33 -29 -120 -29
-99 0 -161 15 -152 38 3 9 -8 6 -31 -8 -33 -21 -40 -22 -107 -11 -40 6 -96 9
-125 7 -29 -2 -54 0 -57 4 -2 4 -18 7 -35 8 -17 0 -52 13 -77 28 l-46 27 36
19 c20 10 44 29 52 42 14 21 56 46 135 80 13 6 43 30 66 54 22 23 45 42 50 42
5 0 19 15 30 33 14 20 39 39 70 51 62 25 114 55 114 67 0 15 -37 10 -50 -6 -7
-9 -15 -13 -18 -11 -7 7 -62 -23 -62 -34 0 -5 -6 -7 -14 -4 -8 3 -41 -21 -79
-58 -83 -79 -105 -98 -116 -98 -5 0 -14 -7 -21 -15 -7 -8 -25 -15 -40 -15 -19
0 -40 -13 -68 -40 -22 -22 -47 -40 -56 -40 -9 0 -16 -4 -16 -8 0 -5 -14 -9
-31 -9 -22 0 -37 8 -54 31 -33 44 -65 104 -65 121 0 8 -4 15 -9 15 -5 0 -12
16 -15 35 -4 19 -11 35 -15 35 -5 0 -15 24 -21 53 -7 28 -19 59 -27 69 -10 11
-11 18 -3 23 5 3 8 11 4 16 -3 5 0 17 7 25 10 12 8 18 -9 35 -25 22 -30 51 -8
43 19 -7 31 15 16 29 -10 9 -14 9 -17 -1 -4 -10 -9 -6 -18 10 -8 15 -8 27 -2
36 7 9 4 17 -9 27 -17 13 -18 14 -1 15 15 0 17 11 19 83 3 133 3 135 20 154 9
10 20 31 24 46 3 16 13 31 21 34 8 3 12 11 9 18 -3 8 2 16 10 19 9 3 14 12 11
19 -2 6 1 23 8 37 7 14 11 40 10 58 -2 17 1 34 5 37 4 3 14 28 20 56 13 51 65
149 81 149 4 0 9 6 11 14 3 15 80 104 166 193 59 60 64 83 39 148 -9 22 -16
52 -17 67 0 15 -4 30 -10 33 -5 3 -10 12 -10 20 0 8 -5 26 -12 42 -6 15 -10
34 -9 41 1 8 -2 19 -7 25 -5 7 -15 37 -21 67 -7 30 -15 62 -18 70 -4 8 -7 18
-7 22 -1 3 -4 10 -9 14 -4 4 -7 20 -7 35 0 31 -19 80 -35 91 -6 5 -5 8 4 8 8
0 0 13 -18 32 -17 17 -31 38 -31 45 0 8 -10 33 -21 56 -12 23 -21 42 -20 42 1
0 -2 13 -8 28 -6 16 -11 32 -11 37 0 5 -9 15 -20 23 -11 8 -17 16 -14 19 10
10 -8 58 -22 58 -8 0 -14 -5 -14 -11 0 -8 -5 -8 -15 1 -8 7 -15 9 -15 4 0 -20
-59 105 -65 138 l-7 37 35 -6 c41 -6 60 13 32 33 -15 11 -17 23 -12 69 3 30 2
55 -3 55 -4 0 -10 9 -13 20 -3 11 -12 20 -21 20 -9 0 -16 6 -16 13 0 7 -11 37
-25 65 -25 53 -36 59 -98 54 -16 -2 -15 1 5 28 12 17 26 30 31 30 5 0 7 13 5
30 -3 22 0 30 14 32 12 2 15 7 9 17 -7 12 -13 12 -24 3 -17 -15 -27 -6 -27 26
0 14 -10 41 -22 60 -20 33 -22 49 -22 159 1 77 6 128 13 137 6 7 9 21 5 30 -3
9 -2 22 4 29 5 6 12 30 15 52 10 69 18 100 28 109 5 6 9 16 9 24 0 7 11 28 25
46 14 18 25 37 25 43 0 13 115 123 129 123 6 0 11 5 11 10 0 14 51 59 67 60 6
0 15 9 18 20 3 11 13 20 21 20 7 0 19 9 26 20 7 11 17 20 21 20 5 0 20 9 34
20 14 11 36 20 48 20 12 0 30 9 40 20 10 11 24 20 31 20 7 0 28 9 46 19 18 11
50 23 71 26 20 4 37 11 37 15 0 4 16 11 35 14 19 4 41 13 48 21 8 7 29 15 48
17 45 6 123 -3 127 -14z m157 -316 c-3 -3 -11 0 -18 7 -9 10 -8 11 6 5 10 -3
15 -9 12 -12z m20 -32 c3 -6 -4 -10 -17 -10 -18 0 -20 2 -8 10 19 12 18 12 25
0z m-332 -131 c-2 -48 -2 -49 -10 -49 -5 0 -8 20 -9 45 0 28 4 44 10 42 6 -2
10 -19 9 -38z m667 31 c0 -5 -2 -10 -4 -10 -3 0 -8 5 -11 10 -3 6 -1 10 4 10
6 0 11 -4 11 -10z m414 1 c4 -5 -3 -7 -14 -4 -23 6 -26 13 -6 13 8 0 17 -4 20
-9z m-88 -56 c-3 -9 -11 -13 -16 -10 -8 5 -7 11 1 21 14 18 24 11 15 -11z m35
-32 c13 -16 12 -17 -3 -4 -10 7 -18 15 -18 17 0 8 8 3 21 -13z m229 -5 c9 -3
10 -7 3 -11 -6 -4 -19 3 -29 16 -11 12 -12 17 -4 11 8 -6 22 -13 30 -16z
m-2100 -108 c0 -5 -5 -10 -11 -10 -5 0 -7 5 -4 10 3 6 8 10 11 10 2 0 4 -4 4
-10z m-100 -74 c0 -2 -8 -10 -17 -17 -16 -13 -17 -12 -4 4 13 16 21 21 21 13z
m1544 -32 c9 -24 2 -26 -12 -4 -7 11 -8 20 -3 20 5 0 12 -7 15 -16z m-164 -14
c8 -5 11 -10 5 -10 -5 0 -17 5 -25 10 -8 5 -10 10 -5 10 6 0 17 -5 25 -10z
m-1470 -35 c-7 -8 -18 -15 -24 -15 -6 0 -2 7 8 15 25 19 32 19 16 0z m2685
-35 c3 -6 -1 -7 -9 -4 -18 7 -21 14 -7 14 6 0 13 -4 16 -10z m40 -40 c3 -5 2
-10 -4 -10 -5 0 -13 5 -16 10 -3 6 -2 10 4 10 5 0 13 -4 16 -10z m-1755 -44
c0 -3 -4 -8 -10 -11 -5 -3 -10 -1 -10 4 0 6 5 11 10 11 6 0 10 -2 10 -4z
m1386 -134 c-4 -3 -14 2 -24 12 -16 18 -16 18 6 6 13 -6 21 -14 18 -18z
m-2594 -14 c-7 -7 -12 -8 -12 -2 0 14 12 26 19 19 2 -3 -1 -11 -7 -17z m1804
-84 c13 5 14 4 6 -7 -9 -10 -8 -17 1 -27 8 -8 8 -11 1 -7 -16 9 -25 -18 -11
-32 9 -9 8 -11 -5 -6 -10 4 -18 11 -18 16 0 5 -8 9 -18 9 -10 0 -25 13 -35 29
-16 27 -16 29 1 27 9 0 16 5 14 12 -1 9 5 8 23 -4 14 -9 32 -13 41 -10z m909
-14 c3 -5 1 -10 -4 -10 -6 0 -11 5 -11 10 0 6 2 10 4 10 3 0 8 -4 11 -10z m45
-55 c14 -19 14 -19 -2 -6 -10 7 -18 18 -18 24 0 6 1 8 3 6 1 -2 9 -13 17 -24z
m-2890 -35 c0 -5 -4 -10 -9 -10 -6 0 -13 5 -16 10 -3 6 1 10 9 10 9 0 16 -4
16 -10z m3399 -44 c-3 -3 -11 5 -18 17 -13 21 -12 21 5 5 10 -10 16 -20 13
-22z m76 16 c-3 -3 -11 0 -18 7 -9 10 -8 11 6 5 10 -3 15 -9 12 -12z m-3285
-16 c0 -3 -4 -8 -10 -11 -5 -3 -10 -1 -10 4 0 6 5 11 10 11 6 0 10 -2 10 -4z
m-59 -93 c-12 -20 -14 -14 -5 12 4 9 9 14 11 11 3 -2 0 -13 -6 -23z m566 -57
c19 0 20 -2 10 -14 -6 -8 -12 -22 -12 -30 0 -8 -5 -17 -12 -19 -17 -6 -29 49
-24 100 l5 42 6 -40 c4 -33 9 -40 27 -39z m2773 9 c14 -19 14 -19 -2 -6 -10 7
-18 18 -18 24 0 6 1 8 3 6 1 -2 9 -13 17 -24z m-411 -19 c-3 -3 -11 5 -18 17
-13 21 -12 21 5 5 10 -10 16 -20 13 -22z m81 -157 c0 -6 -4 -7 -10 -4 -5 3
-10 11 -10 16 0 6 5 7 10 4 6 -3 10 -11 10 -16z m-3123 -41 c-3 -8 -6 -5 -6 6
-1 11 2 17 5 13 3 -3 4 -12 1 -19z m-194 -13 c-3 -9 -8 -14 -10 -11 -3 3 -2 9
2 15 9 16 15 13 8 -4z m3765 -120 c-3 -3 -9 2 -12 12 -6 14 -5 15 5 6 7 -7 10
-15 7 -18z m-351 -167 c-3 -8 -6 -5 -6 6 -1 11 2 17 5 13 3 -3 4 -12 1 -19z
m393 -29 c0 -6 -4 -7 -10 -4 -5 3 -10 11 -10 16 0 6 5 7 10 4 6 -3 10 -11 10
-16z m-3 -51 c-3 -7 -5 -2 -5 12 0 14 2 19 5 13 2 -7 2 -19 0 -25z m-2916 -21
c-10 -9 -11 -8 -5 6 3 10 9 15 12 12 3 -3 0 -11 -7 -18z m-974 -89 c-2 -18 -4
-4 -4 32 0 36 2 50 4 33 2 -18 2 -48 0 -65z m0 -181 c-2 -23 -3 -1 -3 48 0 50
1 68 3 42 2 -26 2 -67 0 -90z m3908 83 c3 -5 1 -10 -4 -10 -6 0 -11 5 -11 10
0 6 2 10 4 10 3 0 8 -4 11 -10z m-378 -52 c-3 -7 -5 -2 -5 12 0 14 2 19 5 13
2 -7 2 -19 0 -25z m-2037 8 c0 -3 -4 -8 -10 -11 -5 -3 -10 -1 -10 4 0 6 5 11
10 11 6 0 10 -2 10 -4z m125 -16 c13 0 31 -3 40 -6 14 -6 13 -8 -5 -21 -20
-14 -24 -13 -46 8 -13 12 -24 27 -23 33 0 6 3 5 6 -1 2 -7 15 -13 28 -13z
m-185 0 c0 -5 -5 -10 -11 -10 -5 0 -7 5 -4 10 3 6 8 10 11 10 2 0 4 -4 4 -10z
m-470 -45 c0 -8 -2 -15 -4 -15 -2 0 -6 7 -10 15 -3 8 -1 15 4 15 6 0 10 -7 10
-15z m1900 11 c0 -3 -4 -8 -10 -11 -5 -3 -10 -1 -10 4 0 6 5 11 10 11 6 0 10
-2 10 -4z m1037 -18 c-3 -8 -6 -5 -6 6 -1 11 2 17 5 13 3 -3 4 -12 1 -19z
m-3900 -50 c-3 -7 -5 -2 -5 12 0 14 2 19 5 13 2 -7 2 -19 0 -25z m2688 -45 c6
-14 18 -23 32 -23 34 0 28 -17 -14 -44 -40 -25 -55 -19 -45 17 4 15 1 19 -9
15 -10 -4 -14 4 -16 29 -1 30 1 34 20 31 12 -2 26 -13 32 -25z m1202 -5 c-3
-7 -5 -2 -5 12 0 14 2 19 5 13 2 -7 2 -19 0 -25z m-3877 -13 c0 -5 -5 -3 -10
5 -5 8 -10 20 -10 25 0 6 5 3 10 -5 5 -8 10 -19 10 -25z m3873 -56 c-6 -6 -7
3 -4 23 4 28 6 29 9 9 2 -13 0 -27 -5 -32z m-2352 4 c13 -16 12 -17 -3 -4 -10
7 -18 15 -18 17 0 8 8 3 21 -13z m1235 -35 c-14 -9 -28 16 -20 37 6 14 8 13
18 -7 9 -16 9 -25 2 -30z m1075 -171 c-10 -9 -11 -8 -5 6 3 10 9 15 12 12 3
-3 0 -11 -7 -18z m-28 -112 c-3 -9 -8 -14 -10 -11 -3 3 -2 9 2 15 9 16 15 13
8 -4z m-2653 -26 c0 -6 -4 -7 -10 -4 -5 3 -10 11 -10 16 0 6 5 7 10 4 6 -3 10
-11 10 -16z m-666 -5 c3 -8 2 -12 -4 -9 -6 3 -10 10 -10 16 0 14 7 11 14 -7z
m-89 -254 c3 -5 1 -10 -4 -10 -6 0 -11 5 -11 10 0 6 2 10 4 10 3 0 8 -4 11
-10z m3045 -80 c0 -5 -5 -10 -11 -10 -5 0 -7 5 -4 10 3 6 8 10 11 10 2 0 4 -4
4 -10z m200 -30 c0 -5 -5 -10 -11 -10 -5 0 -7 5 -4 10 3 6 8 10 11 10 2 0 4
-4 4 -10z m-490 -34 c0 -2 -8 -10 -17 -17 -16 -13 -17 -12 -4 4 13 16 21 21
21 13z m-225 -45 c9 -16 -9 -20 -23 -5 -10 12 -10 14 2 14 8 0 17 -4 21 -9z
m-2611 -27 c3 -8 2 -12 -4 -9 -6 3 -10 10 -10 16 0 14 7 11 14 -7z m2521 6
c-3 -5 -15 -10 -27 -10 -18 0 -19 -2 -7 -17 13 -15 12 -15 -9 -2 l-23 14 28
12 c35 15 46 16 38 3z m105 -20 c0 -5 -5 -10 -11 -10 -5 0 -7 5 -4 10 3 6 8
10 11 10 2 0 4 -4 4 -10z m-33 -29 c-5 -21 24 -56 36 -44 4 3 7 1 7 -5 0 -18
-31 -14 -45 5 -18 24 -38 6 -33 -31 3 -29 1 -32 -19 -28 -13 2 -21 8 -18 12
11 17 -8 40 -34 41 -15 0 -20 3 -11 6 8 3 18 11 22 16 4 7 12 6 22 -2 19 -16
39 -4 33 20 -4 16 5 24 37 28 4 0 6 -8 3 -18z m384 -24 l-24 -22 19 27 c10 14
21 24 23 22 3 -3 -6 -15 -18 -27z m190 -50 c-10 -9 -11 -8 -5 6 3 10 9 15 12
12 3 -3 0 -11 -7 -18z m-801 3 c0 -5 -15 -9 -32 -9 l-33 1 30 8 c17 4 31 8 33
9 1 0 2 -3 2 -9z m-2030 -25 c14 -19 14 -19 -2 -6 -10 7 -18 18 -18 24 0 6 1
8 3 6 1 -2 9 -13 17 -24z m2130 21 c0 -3 -4 -8 -10 -11 -5 -3 -10 -1 -10 4 0
6 5 11 10 11 6 0 10 -2 10 -4z m127 -18 c-3 -8 -6 -5 -6 6 -1 11 2 17 5 13 3
-3 4 -12 1 -19z m-193 -39 c-6 -11 -24 -2 -24 11 0 5 7 7 15 4 8 -4 12 -10 9
-15z m90 -20 c-3 -5 -10 -7 -15 -3 -5 3 -16 0 -24 -6 -17 -14 -20 1 -4 17 12
12 51 5 43 -8z m-132 -21 c-7 -7 -12 -8 -12 -2 0 14 12 26 19 19 2 -3 -1 -11
-7 -17z m-1916 -36 c-5 -4 -46 35 -46 45 0 3 11 -4 25 -17 14 -13 23 -25 21
-28z m2089 38 c3 -5 -1 -10 -9 -10 -9 0 -16 5 -16 10 0 6 4 10 9 10 6 0 13 -4
16 -10z m315 6 c0 -2 -8 -10 -17 -17 -16 -13 -17 -12 -4 4 13 16 21 21 21 13z
m-2669 -23 c13 -16 12 -17 -3 -4 -10 7 -18 15 -18 17 0 8 8 3 21 -13z m2279
-8 c-11 -13 -10 -18 7 -30 23 -16 25 -66 5 -102 -16 -29 -24 -29 -39 3 -14 30
-7 55 15 52 8 -2 17 3 20 11 4 11 -2 13 -25 8 -19 -4 -38 0 -52 9 -25 18 -18
38 10 29 11 -4 19 -2 19 5 0 6 10 15 23 20 31 12 31 12 17 -5z m580 -29 c0 -2
-8 -10 -17 -17 -16 -13 -17 -12 -4 4 13 16 21 21 21 13z m-658 -36 c11 0 18
-7 18 -17 0 -15 -2 -16 -10 -3 -5 8 -10 11 -10 6 0 -5 -7 -3 -15 4 -8 6 -19 9
-25 5 -5 -3 -10 -2 -10 3 0 16 13 23 24 12 5 -5 18 -10 28 -10z m328 -25 c-7
-9 -15 -13 -19 -10 -3 3 1 10 9 15 21 14 24 12 10 -5z m280 7 c0 -4 -10 -13
-22 -21 -23 -14 -23 -14 -4 8 20 22 26 25 26 13z m-2669 -49 c13 -16 12 -17
-3 -4 -10 7 -18 15 -18 17 0 8 8 3 21 -13z m80 -70 c13 -16 12 -17 -3 -4 -17
13 -22 21 -14 21 2 0 10 -8 17 -17z m2419 -27 c0 -2 -8 -10 -17 -17 -16 -13
-17 -12 -4 4 13 16 21 21 21 13z m-2175 -139 c10 -8 14 -16 9 -19 -5 -3 -18 3
-28 13 -22 22 -9 26 19 6z m1965 -6 c0 -5 -9 -11 -21 -14 -16 -4 -18 -3 -8 9
13 16 29 19 29 5z m-10 -81 c0 -5 -2 -10 -4 -10 -3 0 -8 5 -11 10 -3 6 -1 10
4 10 6 0 11 -4 11 -10z m-610 -145 c-7 -9 -15 -13 -17 -11 -7 7 7 26 19 26 6
0 6 -6 -2 -15z m-230 -219 c0 -3 -4 -8 -10 -11 -5 -3 -10 -1 -10 4 0 6 5 11
10 11 6 0 10 -2 10 -4z"/>
<path d="M2620 4790 c0 -5 7 -10 15 -10 8 0 15 5 15 10 0 6 -7 10 -15 10 -8 0
-15 -4 -15 -10z"/>
<path d="M2478 4763 c7 -3 16 -2 19 1 4 3 -2 6 -13 5 -11 0 -14 -3 -6 -6z"/>
<path d="M2914 4676 c-8 -22 3 -33 18 -18 9 9 9 15 0 24 -9 9 -13 7 -18 -6z"/>
<path d="M2982 4628 c-17 -17 -15 -38 3 -38 8 0 15 4 15 10 0 5 7 7 15 4 9 -4
15 0 15 9 0 8 -7 18 -16 21 -20 8 -18 8 -32 -6z"/>
<path d="M2395 4621 c-3 -6 3 -15 14 -20 27 -15 44 -14 38 2 -2 6 -10 11 -16
10 -6 -2 -11 2 -11 7 0 13 -17 13 -25 1z"/>
<path d="M2330 4574 c0 -17 22 -14 28 4 2 7 -3 12 -12 12 -9 0 -16 -7 -16 -16z"/>
<path d="M2934 4565 c-8 -20 3 -48 17 -43 6 2 10 7 10 11 -1 4 -1 16 -1 27 0
23 -18 27 -26 5z"/>
<path d="M2462 4549 c2 -6 8 -10 13 -10 5 0 11 4 13 10 2 6 -4 11 -13 11 -9 0
-15 -5 -13 -11z"/>
<path d="M2992 4494 c4 -24 48 -33 48 -10 0 9 -4 16 -9 16 -5 0 -17 3 -26 6
-13 5 -16 2 -13 -12z"/>
<path d="M3170 4495 c0 -8 7 -15 15 -15 8 0 15 7 15 15 0 8 -7 15 -15 15 -8 0
-15 -7 -15 -15z"/>
<path d="M2800 4472 c0 -14 11 -21 26 -15 8 3 11 9 8 14 -7 11 -34 12 -34 1z"/>
<path d="M1738 4343 c7 -3 16 -2 19 1 4 3 -2 6 -13 5 -11 0 -14 -3 -6 -6z"/>
<path d="M1868 4273 c7 -3 16 -2 19 1 4 3 -2 6 -13 5 -11 0 -14 -3 -6 -6z"/>
<path d="M1918 4273 c7 -3 16 -2 19 1 4 3 -2 6 -13 5 -11 0 -14 -3 -6 -6z"/>
<path d="M1802 4233 c5 -25 28 -28 28 -4 0 12 -6 21 -16 21 -9 0 -14 -7 -12
-17z"/>
<path d="M1528 4203 c7 -3 16 -2 19 1 4 3 -2 6 -13 5 -11 0 -14 -3 -6 -6z"/>
<path d="M1778 4193 c-16 -4 -22 -22 -21 -60 1 -7 -3 -13 -8 -13 -5 0 -9 -7
-9 -16 0 -10 7 -14 23 -12 17 2 23 11 25 35 2 17 10 37 18 43 28 24 15 35 -28
23z"/>
<path d="M1658 4123 c7 -3 16 -2 19 1 4 3 -2 6 -13 5 -11 0 -14 -3 -6 -6z"/>
<path d="M1812 4088 c6 -18 28 -21 28 -4 0 9 -7 16 -16 16 -9 0 -14 -5 -12
-12z"/>
<path d="M2018 4093 c7 -3 16 -2 19 1 4 3 -2 6 -13 5 -11 0 -14 -3 -6 -6z"/>
<path d="M2075 4060 c3 -5 15 -10 26 -10 10 0 19 5 19 10 0 6 -12 10 -26 10
-14 0 -23 -4 -19 -10z"/>
<path d="M1552 4023 c5 -25 28 -28 28 -4 0 12 -6 21 -16 21 -9 0 -14 -7 -12
-17z"/>
<path d="M2130 4030 c0 -5 7 -10 15 -10 8 0 15 5 15 10 0 6 -7 10 -15 10 -8 0
-15 -4 -15 -10z"/>
<path d="M1720 4015 c0 -8 -4 -15 -10 -15 -5 0 -10 -4 -10 -10 0 -15 33 -12
58 6 27 18 20 34 -14 34 -15 0 -24 -6 -24 -15z"/>
<path d="M1500 3974 c0 -9 5 -14 12 -12 18 6 21 28 4 28 -9 0 -16 -7 -16 -16z"/>
<path d="M1670 3971 c0 -11 -9 -26 -19 -33 -15 -11 -20 -28 -23 -77 -1 -34 -6
-65 -10 -67 -4 -3 -5 -11 -1 -19 3 -8 1 -15 -5 -15 -14 0 -22 -91 -10 -114 8
-15 7 -18 -5 -13 -20 8 -12 -22 11 -40 25 -20 36 -16 50 20 8 17 18 42 24 54
6 11 7 26 4 32 -4 6 -2 11 3 11 12 0 15 102 4 114 -11 11 -10 120 1 127 11 9
0 39 -14 39 -5 0 -10 -9 -10 -19z"/>
<path d="M1510 3907 c0 -21 12 -28 27 -16 19 16 16 29 -7 29 -11 0 -20 -6 -20
-13z"/>
<path d="M2120 3910 c0 -5 4 -10 9 -10 6 0 13 5 16 10 3 6 -1 10 -9 10 -9 0
-16 -4 -16 -10z"/>
<path d="M1700 3885 c0 -17 5 -25 13 -22 6 2 12 12 12 22 0 10 -6 20 -12 23
-8 2 -13 -6 -13 -23z"/>
<path d="M1498 3853 c7 -3 16 -2 19 1 4 3 -2 6 -13 5 -11 0 -14 -3 -6 -6z"/>
<path d="M1475 3800 c-7 -12 2 -30 16 -30 12 0 12 27 0 35 -5 3 -12 1 -16 -5z"/>
<path d="M1738 3623 c7 -3 16 -2 19 1 4 3 -2 6 -13 5 -11 0 -14 -3 -6 -6z"/>
<path d="M1580 3566 c0 -9 7 -16 16 -16 9 0 14 5 12 12 -6 18 -28 21 -28 4z"/>
<path d="M1986 2425 c4 -8 12 -15 20 -15 8 0 11 6 8 15 -4 8 -12 15 -20 15 -8
0 -11 -6 -8 -15z"/>
<path d="M2010 2355 c0 -8 7 -15 15 -15 8 0 15 7 15 15 0 8 -7 15 -15 15 -8 0
-15 -7 -15 -15z"/>
<path d="M2057 2203 c-14 -13 -6 -43 14 -54 29 -15 52 6 27 25 -10 7 -18 18
-18 25 0 12 -13 15 -23 4z"/>
<path d="M2075 1910 c-4 -6 6 -10 22 -10 22 0 25 2 13 10 -19 12 -27 12 -35 0z"/>
<path d="M2130 1835 c0 -8 7 -15 15 -15 8 0 15 7 15 15 0 8 -7 15 -15 15 -8 0
-15 -7 -15 -15z"/>
<path d="M2090 1825 c0 -8 7 -15 15 -15 8 0 15 7 15 15 0 8 -7 15 -15 15 -8 0
-15 -7 -15 -15z"/>
<path d="M2110 1745 c0 -15 26 -32 36 -23 2 3 2 13 -2 22 -8 20 -34 21 -34 1z"/>
<path d="M2120 1675 c0 -8 7 -15 15 -15 8 0 15 7 15 15 0 8 -7 15 -15 15 -8 0
-15 -7 -15 -15z"/>
<path d="M2160 1644 c0 -9 5 -14 12 -12 18 6 21 28 4 28 -9 0 -16 -7 -16 -16z"/>
<path d="M2068 1593 c7 -3 16 -2 19 1 4 3 -2 6 -13 5 -11 0 -14 -3 -6 -6z"/>
<path d="M2168 1563 c7 -3 16 -2 19 1 4 3 -2 6 -13 5 -11 0 -14 -3 -6 -6z"/>
<path d="M1838 1523 c7 -3 16 -2 19 1 4 3 -2 6 -13 5 -11 0 -14 -3 -6 -6z"/>
<path d="M2160 1514 c0 -9 5 -14 12 -12 18 6 21 28 4 28 -9 0 -16 -7 -16 -16z"/>
<path d="M3200 1507 c0 -21 22 -37 50 -36 16 1 19 3 8 6 -10 2 -18 8 -18 13 0
5 -9 14 -20 20 -15 8 -20 8 -20 -3z"/>
<path d="M2185 1480 c-3 -5 -1 -10 4 -10 6 0 11 5 11 10 0 6 -2 10 -4 10 -3 0
-8 -4 -11 -10z"/>
<path d="M2935 1480 c-3 -5 1 -10 9 -10 9 0 16 5 16 10 0 6 -4 10 -9 10 -6 0
-13 -4 -16 -10z"/>
<path d="M1738 1473 c7 -3 16 -2 19 1 4 3 -2 6 -13 5 -11 0 -14 -3 -6 -6z"/>
<path d="M1945 1450 c-3 -6 1 -7 9 -4 18 7 21 14 7 14 -6 0 -13 -4 -16 -10z"/>
<path d="M2462 1449 c2 -6 8 -10 13 -10 5 0 11 4 13 10 2 6 -4 11 -13 11 -9 0
-15 -5 -13 -11z"/>
<path d="M2695 1450 c-3 -5 -2 -10 4 -10 5 0 13 5 16 10 3 6 2 10 -4 10 -5 0
-13 -4 -16 -10z"/>
<path d="M2500 1437 c0 -7 6 -22 14 -33 15 -19 15 -19 30 1 14 18 13 21 -1 33
-22 16 -43 15 -43 -1z"/>
<path d="M3170 1425 c-7 -8 -19 -15 -27 -15 -8 0 -13 -6 -10 -12 2 -7 10 -12
16 -10 6 1 11 -2 11 -8 0 -5 8 -10 19 -10 14 0 18 7 17 29 -2 38 -10 46 -26
26z"/>
<path d="M1868 1403 c7 -3 16 -2 19 1 4 3 -2 6 -13 5 -11 0 -14 -3 -6 -6z"/>
<path d="M2628 1403 c7 -3 16 -2 19 1 4 3 -2 6 -13 5 -11 0 -14 -3 -6 -6z"/>
<path d="M1720 1355 c0 -8 7 -15 15 -15 8 0 15 7 15 15 0 8 -7 15 -15 15 -8 0
-15 -7 -15 -15z"/>
<path d="M2288 1323 c7 -3 16 -2 19 1 4 3 -2 6 -13 5 -11 0 -14 -3 -6 -6z"/>
<path d="M2998 1323 c7 -3 16 -2 19 1 4 3 -2 6 -13 5 -11 0 -14 -3 -6 -6z"/>
<path d="M3037 1324 c7 -3 9 -12 6 -20 -3 -8 1 -14 11 -14 9 0 16 4 16 8 0 12
-22 32 -34 31 -6 0 -6 -3 1 -5z"/>
<path d="M3147 1314 c-8 -8 1 -24 14 -24 5 0 9 7 9 15 0 15 -12 20 -23 9z"/>
<path d="M1674 1296 c-8 -22 3 -33 18 -18 9 9 9 15 0 24 -9 9 -13 7 -18 -6z"/>
<path d="M2842 1289 c5 -14 21 -14 26 0 2 6 -4 11 -13 11 -9 0 -15 -5 -13 -11z"/>
<path d="M2278 1273 c7 -3 16 -2 19 1 4 3 -2 6 -13 5 -11 0 -14 -3 -6 -6z"/>
<path d="M2397 1273 c-16 -15 -5 -33 19 -33 20 0 25 4 20 16 -3 9 -6 18 -6 20
0 7 -26 5 -33 -3z"/>
<path d="M3095 1271 c-3 -5 -1 -12 4 -16 6 -3 8 -12 4 -20 -3 -11 2 -15 17
-15 16 0 20 4 16 16 -3 9 -6 22 -6 30 0 16 -26 19 -35 5z"/>
<path d="M3152 1263 c2 -10 12 -19 23 -20 11 -2 14 0 8 3 -7 3 -13 12 -13 20
0 8 -5 14 -11 14 -6 0 -9 -8 -7 -17z"/>
<path d="M1658 1243 c7 -3 16 -2 19 1 4 3 -2 6 -13 5 -11 0 -14 -3 -6 -6z"/>
<path d="M2450 1234 c0 -17 22 -14 28 4 2 7 -3 12 -12 12 -9 0 -16 -7 -16 -16z"/>
<path d="M2895 1231 c-7 -12 12 -24 25 -16 11 7 4 25 -10 25 -5 0 -11 -4 -15
-9z"/>
<path d="M1818 1223 c7 -3 16 -2 19 1 4 3 -2 6 -13 5 -11 0 -14 -3 -6 -6z"/>
<path d="M1958 1223 c7 -3 16 -2 19 1 4 3 -2 6 -13 5 -11 0 -14 -3 -6 -6z"/>
<path d="M2018 1223 c7 -3 16 -2 19 1 4 3 -2 6 -13 5 -11 0 -14 -3 -6 -6z"/>
<path d="M2578 1223 c7 -3 16 -2 19 1 4 3 -2 6 -13 5 -11 0 -14 -3 -6 -6z"/>
<path d="M2708 1223 c6 -2 18 -2 25 0 6 3 1 5 -13 5 -14 0 -19 -2 -12 -5z"/>
<path d="M1695 1200 c-3 -5 3 -10 15 -10 12 0 18 5 15 10 -3 6 -10 10 -15 10
-5 0 -12 -4 -15 -10z"/>
<path d="M3082 1193 c2 -10 11 -19 21 -21 16 -3 17 -1 7 17 -13 25 -33 28 -28
4z"/>
<path d="M2070 1190 c0 -5 12 -10 26 -10 14 0 23 4 19 10 -3 6 -15 10 -26 10
-10 0 -19 -4 -19 -10z"/>
<path d="M2830 1190 c0 -5 9 -10 21 -10 11 0 17 5 14 10 -3 6 -13 10 -21 10
-8 0 -14 -4 -14 -10z"/>
<path d="M2880 1186 c0 -9 7 -16 16 -16 9 0 14 5 12 12 -6 18 -28 21 -28 4z"/>
<path d="M2195 1180 c3 -5 8 -10 11 -10 2 0 4 5 4 10 0 6 -5 10 -11 10 -5 0
-7 -4 -4 -10z"/>
<path d="M2340 1180 c0 -5 5 -10 11 -10 5 0 7 5 4 10 -3 6 -8 10 -11 10 -2 0
-4 -4 -4 -10z"/>
<path d="M1723 1173 c9 -2 23 -2 30 0 6 3 -1 5 -18 5 -16 0 -22 -2 -12 -5z"/>
<path d="M1818 1173 c7 -3 16 -2 19 1 4 3 -2 6 -13 5 -11 0 -14 -3 -6 -6z"/>
<path d="M2478 1173 c6 -2 18 -2 25 0 6 3 1 5 -13 5 -14 0 -19 -2 -12 -5z"/>
<path d="M1777 1164 c-11 -11 3 -24 18 -18 8 4 12 10 9 15 -6 11 -18 12 -27 3z"/>
<path d="M2744 1147 c1 -17 6 -23 19 -19 20 5 22 13 5 30 -18 18 -26 15 -24
-11z"/>
<path d="M3170 1161 c0 -6 5 -13 10 -16 6 -4 8 -10 5 -15 -3 -5 -1 -11 4 -14
14 -9 23 11 16 34 -6 20 -35 29 -35 11z"/>
<path d="M2890 1130 c0 -5 7 -10 15 -10 8 0 15 5 15 10 0 6 -7 10 -15 10 -8 0
-15 -4 -15 -10z"/>
<path d="M3235 1130 c-3 -5 3 -10 15 -10 12 0 18 5 15 10 -3 6 -10 10 -15 10
-5 0 -12 -4 -15 -10z"/>
<path d="M1670 1120 c0 -12 33 -30 54 -30 9 0 16 9 16 20 0 16 -7 20 -35 20
-19 0 -35 -4 -35 -10z"/>
<path d="M3138 1123 c7 -3 16 -2 19 1 4 3 -2 6 -13 5 -11 0 -14 -3 -6 -6z"/>
<path d="M1970 1105 c0 -8 7 -15 15 -15 8 0 15 7 15 15 0 8 -7 15 -15 15 -8 0
-15 -7 -15 -15z"/>
<path d="M1735 1071 c-7 -12 12 -24 25 -16 11 7 4 25 -10 25 -5 0 -11 -4 -15
-9z"/>
<path d="M3240 1034 c0 -9 5 -14 12 -12 18 6 21 28 4 28 -9 0 -16 -7 -16 -16z"/>
<path d="M1776 1022 c-7 -12 22 -45 33 -37 8 4 8 12 1 26 -11 20 -25 25 -34
11z"/>
<path d="M3236 961 c-3 -5 1 -11 9 -15 15 -6 29 7 18 18 -9 9 -21 8 -27 -3z"/>
<path d="M3091 941 c16 -24 39 -28 39 -6 0 8 -4 15 -9 15 -5 0 -17 3 -26 6
-15 6 -15 4 -4 -15z"/>
<path d="M2357 943 c-12 -11 -8 -23 8 -23 8 0 15 7 15 15 0 16 -12 20 -23 8z"/>
<path d="M1722 923 c5 -25 28 -28 28 -4 0 12 -6 21 -16 21 -9 0 -14 -7 -12
-17z"/>
<path d="M2564 904 c6 -15 -17 -48 -27 -38 -6 7 -77 -36 -77 -47 0 -17 25 -10
98 28 39 21 72 44 72 51 0 8 -6 12 -15 9 -8 -4 -17 -2 -20 3 -11 17 -38 12
-31 -6z"/>
<path d="M2645 910 c-8 -12 20 -24 35 -15 5 3 10 10 10 16 0 12 -37 12 -45 -1z"/>
<path d="M2000 895 c0 -8 7 -15 15 -15 8 0 15 7 15 15 0 8 -7 15 -15 15 -8 0
-15 -7 -15 -15z"/>
<path d="M2068 873 c7 -3 16 -2 19 1 4 3 -2 6 -13 5 -11 0 -14 -3 -6 -6z"/>
<path d="M2818 873 c7 -3 16 -2 19 1 4 3 -2 6 -13 5 -11 0 -14 -3 -6 -6z"/>
<path d="M2929 858 c-10 -18 -9 -20 6 -15 9 4 19 7 21 7 2 0 4 7 4 15 0 22
-18 18 -31 -7z"/>
<path d="M1914 859 c-3 -6 2 -17 12 -24 24 -18 34 -19 34 -2 0 18 -37 39 -46
26z"/>
<path d="M3197 864 c-13 -13 -7 -24 14 -24 11 0 19 5 17 12 -5 14 -22 21 -31
12z"/>
<path d="M2168 843 c7 -3 16 -2 19 1 4 3 -2 6 -13 5 -11 0 -14 -3 -6 -6z"/>
<path d="M2930 806 c0 -16 27 -29 41 -20 13 8 -9 34 -27 34 -8 0 -14 -6 -14
-14z"/>
<path d="M2940 759 c0 -5 5 -7 10 -4 6 3 10 8 10 11 0 2 -4 4 -10 4 -5 0 -10
-5 -10 -11z"/>
<path d="M1738 753 c7 -3 16 -2 19 1 4 3 -2 6 -13 5 -11 0 -14 -3 -6 -6z"/>
<path d="M2498 753 c7 -3 16 -2 19 1 4 3 -2 6 -13 5 -11 0 -14 -3 -6 -6z"/>
<path d="M1892 718 c6 -18 28 -21 28 -4 0 9 -7 16 -16 16 -9 0 -14 -5 -12 -12z"/>
<path d="M1829 695 c-6 -27 -1 -50 12 -53 12 -2 16 6 17 28 0 20 -4 30 -14 30
-8 0 -14 -2 -15 -5z"/>
<path d="M2277 674 c-8 -8 1 -24 14 -24 5 0 9 7 9 15 0 15 -12 20 -23 9z"/>
<path d="M1846 543 c-11 -11 -6 -23 9 -23 8 0 15 4 15 9 0 13 -16 22 -24 14z"/>
<path d="M2070 470 c0 -5 11 -10 25 -10 14 0 25 5 25 10 0 6 -11 10 -25 10
-14 0 -25 -4 -25 -10z"/>
<path d="M2470 465 c0 -8 9 -15 20 -15 13 0 18 5 14 15 -4 8 -12 15 -20 15 -8
0 -14 -7 -14 -15z"/>
</g>
</svg>
