<svg id="Layer_1" data-name="Layer 1" xmlns="http://www.w3.org/2000/svg" viewBox="0 0 147.5 108.89"><defs><style>.cls-1{fill:#fff;}</style></defs><path class="cls-1" d="M148.73,127.59a1.56,1.56,0,0,1-.37,1.34c-.91.94-2.46.13-3.48-.68-8-6.43-16.09-12.87-25.14-17.7-2.67-1.42-5.7-2.73-8.62-1.94-3.47.94-5.55,4.58-6.36,8.11S104,124,102.89,127.4c-.3.93-.87,2-1.84,2s-1.82-1.17-2.21-2.23a313.51,313.51,0,0,1-20-104.57c0-1.48,1-3.16,2-1.19a42.41,42.41,0,0,1,1.89,5.88c2.69,8.55,6.23,17,12.07,23.79s14.3,11.7,23.21,11.56A31.36,31.36,0,0,0,133,58.19c1.28-.73,3.28-1.34,3.91,0a2.57,2.57,0,0,1-.4,2.25c-3.73,6.82-10.19,12.61-10.8,20.37-.33,4.17,1.14,8.25,2.79,12.09,5,11.64,11.82,22.41,19.26,32.65A5.1,5.1,0,0,1,148.73,127.59Z" transform="translate(-1.25 -20.55)"/><path class="cls-1" d="M70.32,28.39c.79.39.83,2.7.79,3.4-1.93,32.49-6.46,63.68-17.56,95.49-.34,1-1.15,2.12-2.17,1.89-.75-.17-1.12-1-1.39-1.74A58.35,58.35,0,0,0,41.4,112c-1.4-1.81-3-3.62-5.23-4.21-2.53-.67-5.17.45-7.47,1.71-9,4.92-16.52,12.2-24.18,19.08a2.7,2.7,0,0,1-1.78.92,1.9,1.9,0,0,1-1.47-2.25,5.66,5.66,0,0,1,1.47-2.6c7.64-9.27,15-19.53,20.13-30.46,1.35-2.89,2.63-6,2.54-9.15-.09-3.48-1.8-6.73-3.9-9.48S16,70.35,13.87,67.59c-.73-1-1.33-2.5-.36-3.19a2.2,2.2,0,0,1,2.09.11c2.44,1.06,4.69,2.54,7.14,3.58,9.8,4.16,21.6.45,29.41-6.87s12.26-17.63,15.26-28c.39-1.37.82-3.58,2-4.55C69.77,28.33,70.08,28.27,70.32,28.39Z" transform="translate(-1.25 -20.55)"/><ellipse class="cls-1" cx="37.7" cy="47.91" rx="10.51" ry="10.47" transform="translate(-23.64 37.64) rotate(-61.51)"/><ellipse class="cls-1" cx="112.42" cy="41.06" rx="10.51" ry="10.47" transform="translate(21.45 99.73) rotate(-61.51)"/></svg>
